<svg width="1454" height="679" viewBox="0 0 1454 679" fill="none" xmlns="http://www.w3.org/2000/svg">
<path d="M898 342.5H152.5C139.245 342.5 128.5 353.245 128.5 366.5V424" stroke="#3A21ED" stroke-width="7" stroke-linecap="round" stroke-linejoin="bevel"/>
<path d="M898 342.5H463.5C450.245 342.5 439.5 353.245 439.5 366.5V424" stroke="#3A21ED" stroke-width="7" stroke-linecap="round" stroke-linejoin="bevel"/>
<path d="M898 342.5H769.5C756.245 342.5 745.5 353.245 745.5 366.5V424" stroke="#3A21ED" stroke-width="7" stroke-linecap="round" stroke-linejoin="bevel"/>
<rect width="292.966" height="292.966" rx="20" transform="matrix(0.866025 0.5 -0.866025 0.5 1199.71 385.328)" fill="#040531" fill-opacity="0.1"/>
<path d="M1441.88 399.438C1441.88 405.276 1439.95 410.002 1436.09 412.229L1194.59 551.658C1198.45 549.431 1200.38 544.705 1200.38 538.866L1441.88 399.438ZM1422.12 119.312C1433.04 125.613 1441.88 140.936 1441.88 153.536L1441.88 153.537V399.437L1200.38 538.865V292.963L1200.38 292.961C1200.38 280.361 1191.54 265.042 1180.62 258.742L1422.12 119.312ZM1206.17 1.31543C1210.03 -0.911385 1215.08 -0.219936 1220.14 2.69824L1220.14 2.69727L1422.12 119.311L1180.62 258.74L978.644 142.127L978.642 142.129C973.585 139.209 968.528 138.518 964.67 140.745L1206.17 1.31543Z" fill="url(#paint0_linear_37_1023)"/>
<path d="M1262.95 367.011V327.331L1252.32 333.469V326.959L1279.7 311.149V317.659L1269.23 323.704V363.384L1262.95 367.011ZM1289.35 352.513C1287.38 353.65 1285.64 354.26 1284.14 354.342C1282.67 354.363 1281.53 353.908 1280.7 352.978C1279.88 352.007 1279.47 350.55 1279.47 348.607C1279.47 346.789 1279.81 344.96 1280.49 343.12C1281.2 341.26 1282.3 339.411 1283.76 337.571C1285.23 335.732 1287.07 333.965 1289.29 332.27L1299.39 324.52V330.038L1290.47 336.982C1288.86 338.243 1287.68 339.524 1286.93 340.826C1286.18 342.087 1285.8 343.379 1285.8 344.701C1285.8 345.983 1286.22 346.799 1287.04 347.15C1287.9 347.44 1288.99 347.202 1290.31 346.437C1291.96 345.487 1293.39 344.247 1294.61 342.717C1295.86 341.167 1296.83 339.514 1297.51 337.757C1298.19 335.959 1298.53 334.213 1298.53 332.518V323.9C1298.53 322.247 1297.99 321.214 1296.92 320.8C1295.88 320.325 1294.48 320.594 1292.73 321.606C1291.12 322.536 1289.71 323.849 1288.49 325.543C1287.31 327.176 1286.43 328.922 1285.86 330.782L1280.81 330.782C1281.35 328.819 1282.22 326.866 1283.44 324.923C1284.66 322.939 1286.07 321.131 1287.68 319.498C1289.33 317.845 1291.07 316.491 1292.89 315.437C1295.18 314.115 1297.2 313.443 1298.96 313.422C1300.75 313.381 1302.13 313.97 1303.09 315.189C1304.1 316.347 1304.6 318.083 1304.6 320.397V342.965L1298.8 346.313V340.237L1300.03 339.71C1299.35 341.467 1298.48 343.151 1297.4 344.763C1296.36 346.355 1295.16 347.812 1293.8 349.134C1292.48 350.436 1290.99 351.563 1289.35 352.513ZM1327.21 330.654C1324.95 331.956 1322.89 332.607 1321.03 332.607C1319.21 332.587 1317.79 331.853 1316.79 330.406L1317.49 328.701V335.521L1311.69 338.869V291.935L1317.76 288.432V308.768L1316.79 307.714C1317.87 305.193 1319.3 302.878 1321.09 300.77C1322.88 298.662 1324.92 296.947 1327.21 295.624C1329.96 294.033 1332.43 293.372 1334.62 293.64C1336.84 293.888 1338.57 294.973 1339.83 296.895C1341.11 298.797 1341.76 301.401 1341.76 304.707C1341.76 308.014 1341.11 311.362 1339.83 314.751C1338.57 318.12 1336.86 321.22 1334.67 324.051C1332.49 326.841 1330 329.042 1327.21 330.654ZM1326.62 324.485C1328.34 323.493 1329.86 322.14 1331.18 320.424C1332.51 318.709 1333.54 316.808 1334.3 314.72C1335.08 312.571 1335.48 310.442 1335.48 308.334C1335.48 306.226 1335.08 304.573 1334.3 303.374C1333.54 302.155 1332.51 301.452 1331.18 301.266C1329.86 301.08 1328.34 301.483 1326.62 302.475C1324.94 303.447 1323.41 304.8 1322.05 306.536C1320.73 308.252 1319.67 310.163 1318.89 312.271C1318.13 314.359 1317.76 316.456 1317.76 318.564C1317.76 320.672 1318.13 322.357 1318.89 323.617C1319.67 324.816 1320.73 325.508 1322.05 325.694C1323.41 325.86 1324.94 325.457 1326.62 324.485ZM1347.66 318.102V271.168L1353.73 267.665V314.599L1347.66 318.102ZM1374.46 303.373C1371.56 305.047 1368.98 305.771 1366.73 305.543C1364.51 305.254 1362.77 304.148 1361.52 302.226C1360.27 300.263 1359.64 297.628 1359.64 294.321C1359.64 290.932 1360.27 287.574 1361.52 284.246C1362.81 280.898 1364.53 277.86 1366.67 275.132C1368.82 272.363 1371.26 270.193 1373.98 268.622C1376.16 267.362 1378.11 266.669 1379.83 266.545C1381.55 266.421 1383 266.783 1384.18 267.63C1385.36 268.436 1386.26 269.635 1386.86 271.226C1387.51 272.797 1387.83 274.678 1387.83 276.868C1387.83 277.406 1387.81 277.974 1387.78 278.573C1387.74 279.173 1387.67 279.751 1387.56 280.309L1364.42 293.67V288.09L1384.13 276.713L1381.23 280.929C1381.58 278.697 1381.46 276.972 1380.85 275.752C1380.28 274.471 1379.38 273.727 1378.17 273.52C1376.98 273.252 1375.59 273.582 1373.98 274.512C1372.37 275.442 1370.93 276.744 1369.68 278.418C1368.43 280.051 1367.46 281.932 1366.78 284.06C1366.1 286.148 1365.83 288.369 1365.98 290.725C1365.8 293.102 1366.07 294.931 1366.78 296.212C1367.53 297.473 1368.57 298.196 1369.9 298.382C1371.26 298.548 1372.8 298.134 1374.51 297.142C1376.27 296.13 1377.75 294.817 1378.97 293.205C1380.22 291.573 1381.21 289.826 1381.92 287.966L1386.86 287.904C1386.29 289.806 1385.4 291.748 1384.18 293.732C1383 295.654 1381.57 297.473 1379.88 299.188C1378.24 300.842 1376.43 302.237 1374.46 303.373ZM1270.19 428.832V401.614L1264.82 404.714V398.39L1270.19 395.29V393.554C1270.19 391.033 1270.63 388.666 1271.53 386.455C1272.42 384.202 1273.66 382.167 1275.23 380.348C1276.84 378.509 1278.69 376.99 1280.76 375.791C1281.16 375.564 1281.61 375.347 1282.11 375.14C1282.61 374.892 1283.02 374.716 1283.34 374.613V380.689C1283.05 380.772 1282.73 380.916 1282.37 381.123C1282.02 381.288 1281.73 381.433 1281.52 381.557C1279.9 382.487 1278.62 383.665 1277.65 385.091C1276.68 386.476 1276.2 388.139 1276.2 390.082V391.818L1290.11 383.789V390.113L1276.2 398.142V425.36L1270.19 428.832ZM1288.5 418.261V371.327L1294.51 367.855V414.789L1288.5 418.261ZM1315.64 403.335C1312.85 404.947 1310.29 405.66 1307.96 405.474C1305.67 405.267 1303.84 404.234 1302.48 402.374C1301.12 400.514 1300.44 397.91 1300.44 394.562C1300.44 391.173 1301.12 387.783 1302.48 384.394C1303.84 380.963 1305.67 377.843 1307.96 375.032C1310.25 372.18 1312.81 369.938 1315.64 368.305C1318.5 366.652 1321.06 365.939 1323.32 366.166C1325.61 366.331 1327.41 367.354 1328.74 369.235C1330.1 371.054 1330.78 373.658 1330.78 377.047C1330.78 380.436 1330.1 383.846 1328.74 387.277C1327.38 390.708 1325.55 393.849 1323.26 396.701C1320.97 399.512 1318.43 401.723 1315.64 403.335ZM1315.64 396.825C1317.36 395.833 1318.88 394.479 1320.2 392.764C1321.53 391.049 1322.56 389.147 1323.32 387.06C1324.1 384.911 1324.5 382.782 1324.5 380.674C1324.5 378.566 1324.1 376.913 1323.32 375.714C1322.56 374.495 1321.53 373.792 1320.2 373.606C1318.88 373.42 1317.36 373.823 1315.64 374.815C1313.95 375.786 1312.43 377.14 1311.07 378.876C1309.75 380.591 1308.69 382.503 1307.91 384.611C1307.15 386.698 1306.78 388.796 1306.78 390.904C1306.78 393.012 1307.15 394.696 1307.91 395.957C1308.69 397.156 1309.75 397.848 1311.07 398.034C1312.43 398.199 1313.95 397.796 1315.64 396.825ZM1343.21 386.671L1333.22 358.895L1339.67 355.175L1347.29 377.495L1345.04 378.797L1352.82 347.58L1358.35 344.387L1366.09 366.645L1363.83 367.947L1371.51 336.792L1377.95 333.072L1367.91 372.411L1362.43 375.573L1354.59 352.757L1356.58 351.61L1348.74 383.478L1343.21 386.671Z" fill="url(#paint1_linear_37_1023)"/>
<path d="M1149.24 172.929V176.342H1149.17L1149.01 183.169L1150.02 183.79H1161.89L1179.66 183.557L1149.4 166.102L1149.24 172.929Z" fill="url(#paint2_linear_37_1023)"/>
<path d="M1174.54 163.313H1162.67C1162.67 163.39 1149.56 155.787 1149.56 155.787V159.434C1149.48 159.434 1156.46 163.468 1156.46 163.468H1150.87L1185.55 183.561H1197.5V183.483H1203.4L1215.27 183.328L1149.87 145.547V148.96L1174.61 163.313H1174.54Z" fill="url(#paint3_linear_37_1023)"/>
<path d="M1184.7 148.336L1184.54 155.163L1163.52 143.06L1149.94 135.225V138.638L1157.55 143.06L1184.39 158.577V161.99L1218.99 182.006L1219.22 171.765L1219.38 164.938L1150.18 124.984V128.398L1184.62 148.336H1184.7Z" fill="url(#paint4_linear_37_1023)"/>
<path d="M1185.17 127.777L1185.01 134.604L1150.49 114.666V118.08L1184.93 138.018V141.431L1219.61 161.447L1219.77 154.62V151.207H1219.84L1220 144.38L1217.05 142.673L1150.72 104.426V107.839L1185.17 127.777Z" fill="url(#paint5_linear_37_1023)"/>
<path d="M1180.28 102.491H1177.33L1211.93 122.507H1200.06C1200.06 122.584 1165.31 102.491 1165.31 102.491H1162.36L1162.51 102.646H1159.56L1194.09 122.584H1188.19L1222.87 142.678H1234.74C1234.74 142.6 1240.64 142.522 1240.64 142.522H1252.51C1252.51 142.445 1183.07 102.336 1183.07 102.336H1180.12L1180.28 102.491Z" fill="url(#paint6_linear_37_1023)"/>
<path d="M1215.89 102.257H1212.94L1220.77 106.834L1245.13 120.954L1247.46 122.273H1241.49L1235.59 122.351L1200.84 102.257H1197.81L1197.97 102.412H1195.02L1220.46 117.075L1229.62 122.351H1223.72L1258.4 142.444H1270.27L1276.17 142.289H1288.04C1288.04 142.211 1251.03 120.876 1251.03 120.876L1220.85 103.421L1218.68 102.18H1215.73L1215.89 102.335V102.257Z" fill="url(#paint7_linear_37_1023)"/>
<path d="M1254.06 101.789H1248.16L1255.84 106.289L1255.69 113.116L1236.37 101.944H1230.47V102.022L1255.53 116.452V119.943L1290.13 139.958L1290.29 133.131V129.718H1290.37L1290.52 122.891L1286.57 120.641L1254.14 101.944H1253.98L1254.06 101.789Z" fill="url(#paint8_linear_37_1023)"/>
<path d="M1277.64 101.557H1271.75L1259.95 101.635L1290.6 119.323L1290.75 112.496V109.083L1290.91 102.256L1289.36 101.402H1277.56L1277.64 101.557Z" fill="url(#paint9_linear_37_1023)"/>
<rect width="278.859" height="291.534" rx="25" transform="matrix(0.866025 0.5 0 1 958.883 130.555)" fill="url(#paint10_linear_37_1023)"/>
<rect x="4.33013" y="7.5" width="268.859" height="281.534" rx="20" transform="matrix(0.866025 0.5 0 1 959.463 128.39)" stroke="white" stroke-opacity="0.5" stroke-width="10"/>
<path d="M1028.92 285.723C1028.22 284.287 1027.9 282.792 1028.03 281.564C1028.16 280.337 1028.73 279.477 1029.62 279.172C1034.3 277.895 1039.62 278.097 1045.27 279.766C1053.94 282.283 1067.39 289.428 1082.02 309.116C1104.83 339.858 1123.55 334.088 1124.31 333.778C1125.21 333.503 1126.35 333.799 1127.49 334.604C1128.62 335.409 1129.66 336.66 1130.39 338.095C1131.09 339.532 1131.41 341.027 1131.28 342.254C1131.15 343.481 1130.57 344.341 1129.69 344.646C1125 345.923 1119.68 345.722 1114.03 344.052C1110.56 343.047 1107 341.492 1103.43 339.423C1095.9 335.075 1086.86 327.559 1077.28 314.703C1054.47 283.96 1035.75 289.73 1035 290.04C1034.09 290.316 1032.95 290.02 1031.82 289.215C1030.68 288.41 1029.65 287.158 1028.92 285.723ZM1124.31 368.551C1123.55 368.861 1104.83 374.631 1082.02 343.889C1067.39 324.201 1053.94 317.056 1045.27 314.539C1039.62 312.87 1034.3 312.668 1029.62 313.945C1028.73 314.25 1028.16 315.11 1028.03 316.337C1027.9 317.565 1028.22 319.06 1028.92 320.496C1029.65 321.931 1030.68 323.183 1031.82 323.988C1032.95 324.793 1034.09 325.089 1035 324.813C1035.75 324.503 1054.47 318.733 1077.28 349.476C1086.86 362.332 1095.9 369.848 1103.43 374.196C1107 376.265 1110.56 377.82 1114.03 378.825C1119.68 380.495 1125 380.696 1129.69 379.419C1130.57 379.114 1131.15 378.254 1131.28 377.027C1131.41 375.8 1131.09 374.305 1130.39 372.868C1129.66 371.433 1128.62 370.182 1127.49 369.377C1126.35 368.572 1125.21 368.276 1124.31 368.551ZM1124.31 403.324C1123.55 403.635 1104.83 409.405 1082.02 378.662C1067.39 358.974 1053.94 351.83 1045.27 349.312C1039.62 347.643 1034.3 347.441 1029.62 348.719C1028.73 349.023 1028.16 349.883 1028.03 351.11C1027.9 352.338 1028.22 353.833 1028.92 355.269C1029.65 356.704 1030.68 357.956 1031.82 358.761C1032.95 359.566 1034.09 359.862 1035 359.586C1035.75 359.276 1054.47 353.506 1077.28 384.249C1086.86 397.105 1095.9 404.621 1103.43 408.969C1112.88 414.414 1122.07 416.243 1129.69 414.192C1130.57 413.887 1131.15 413.027 1131.28 411.8C1131.41 410.573 1131.09 409.078 1130.39 407.641C1129.66 406.206 1128.62 404.955 1127.49 404.15C1126.35 403.345 1125.21 403.049 1124.31 403.324Z" fill="url(#paint11_linear_37_1023)"/>
<rect width="154.202" height="154.202" rx="15" transform="matrix(0.866025 0.5 -0.866025 0.5 439.635 523.77)" fill="#040531" fill-opacity="0.1"/>
<rect width="154.202" height="154.202" rx="35" transform="matrix(0.866025 0.5 -0.866025 0.5 439.633 439)" fill="white"/>
<rect y="5" width="144.202" height="144.202" rx="10" transform="matrix(0.866025 0.5 -0.866025 0.5 443.963 441.5)" fill="white" stroke="#3A21ED" stroke-width="10"/>
<path d="M313.654 516.102C313.654 519.013 315.698 521.648 319.002 523.556V561.894C315.698 559.986 313.654 557.35 313.654 554.439V516.102Z" fill="#3A21ED"/>
<path d="M560.265 561.888L452.546 624.08C445.415 628.197 433.853 628.196 426.723 624.079L319.004 561.889V523.551L426.724 585.742C433.854 589.859 445.414 589.859 452.545 585.742L560.265 523.551V561.888Z" fill="#3A21ED"/>
<path d="M565.616 516.102C565.616 519.013 563.572 521.648 560.268 523.556V561.894C563.572 559.986 565.616 557.35 565.616 554.439V516.102Z" fill="#3A21ED"/>
<path d="M345.579 555.061C344.173 554.252 343.023 554.891 342.98 556.509C342.98 558.128 344.131 560.13 345.536 560.94L400.657 592.76C402.063 593.569 403.213 592.93 403.256 591.311C403.256 589.693 402.105 587.691 400.7 586.881L345.536 555.061H345.579Z" fill="white"/>
<path d="M400.742 581.69C404.661 583.948 407.813 589.443 407.813 593.916C407.813 598.388 404.576 600.22 400.699 597.962L345.536 566.142C341.617 563.885 338.465 558.39 338.465 553.917C338.465 549.444 341.66 547.612 345.579 549.87L400.699 581.69H400.742ZM345.579 564.055L400.699 595.875C403.596 597.579 405.981 596.216 406.024 592.851C406.024 589.485 403.681 585.396 400.742 583.735L345.579 551.915C342.682 550.211 340.297 551.574 340.254 554.897C340.254 558.262 342.597 562.351 345.536 564.012L345.579 564.055Z" fill="white"/>
<path d="M534.882 555.061C536.288 554.252 537.438 554.891 537.48 556.509C537.48 558.128 536.33 560.13 534.925 560.94L479.804 592.76C478.398 593.569 477.248 592.93 477.205 591.311C477.205 589.693 478.356 587.691 479.761 586.881L534.925 555.061H534.882Z" fill="white"/>
<path d="M479.715 581.69C475.796 583.948 472.644 589.443 472.644 593.916C472.644 598.388 475.881 600.22 479.758 597.962L534.921 566.142C538.84 563.885 541.992 558.39 541.992 553.917C541.992 549.444 538.797 547.612 534.878 549.87L479.758 581.69H479.715ZM534.878 564.055L479.758 595.875C476.861 597.579 474.476 596.216 474.433 592.851C474.433 589.485 476.776 585.396 479.715 583.735L534.878 551.915C537.775 550.211 540.161 551.574 540.203 554.897C540.203 558.262 537.86 562.351 534.921 564.012L534.878 564.055Z" fill="white"/>
<path d="M412.481 536.595L412.55 538.437L412.546 538.434L412.688 542.13L413.254 542.457L419.656 542.539L429.229 542.662L412.343 532.913L412.475 536.592L412.481 536.595Z" fill="#3A21ED"/>
<path d="M425.84 531.664L419.453 531.59L412.124 527.358L412.189 529.305L416.076 531.55L413.047 531.516L432.414 542.698L438.845 542.786L438.835 542.78L442.026 542.821L448.427 542.903L411.911 521.82L411.981 523.651L425.84 531.664Z" fill="#3A21ED"/>
<path d="M430.825 523.727L430.967 527.42L419.255 520.655L411.686 516.285L411.757 518.134L416.052 520.614L431.038 529.258L431.109 531.114L450.474 542.295L450.26 536.748L450.118 533.05L411.472 510.738L411.544 512.595L430.825 523.727Z" fill="#3A21ED"/>
<path d="M430.413 512.637L430.555 516.335L411.274 505.203L411.345 507.06L430.612 518.184L430.697 520.025L450.062 531.213L449.919 527.515L449.848 525.658L449.861 525.666L449.72 521.977L449.706 521.969L448.062 521.02L411.06 499.656L411.131 501.513L430.413 512.637Z" fill="#3A21ED"/>
<path d="M426.977 498.927L425.382 498.907L444.691 510.055L438.287 509.972L418.881 498.768L417.3 498.748L417.397 498.804L415.803 498.784L435.084 509.924L431.896 509.89L451.246 521.062L457.637 521.144L460.826 521.185L467.244 521.268L428.488 498.892L426.88 498.871L426.977 498.927Z" fill="#3A21ED"/>
<path d="M446.174 499.174L444.566 499.145L448.958 501.681L462.563 509.543L463.875 510.301L460.673 510.26L457.484 510.219L438.079 499.015L436.457 498.994L436.554 499.05L434.973 499.022L449.171 507.22L454.282 510.17L451.08 510.137L470.43 521.309L476.835 521.391L480.023 521.432L486.414 521.514L465.752 509.584L448.888 499.848L447.658 499.138L446.077 499.118L446.174 499.174Z" fill="#3A21ED"/>
<path d="M466.763 499.341L463.601 499.306L467.879 501.776L468.016 505.469L457.229 499.241L454.058 499.211L454.087 499.228L468.084 507.299L468.154 509.162L487.52 520.343L487.378 516.647L487.307 514.805L487.317 514.811L487.165 511.109L484.958 509.835L466.851 499.392L466.763 499.341Z" fill="#3A21ED"/>
<path d="M479.499 499.47L479.507 499.474L476.348 499.442L469.975 499.375L487.085 509.254L486.953 505.564L486.943 505.558L486.872 503.727L486.73 500.031L485.88 499.541L479.499 499.47Z" fill="#3A21ED"/>
<rect width="154.202" height="154.202" rx="15" transform="matrix(0.866025 0.5 -0.866025 0.5 133.547 523.766)" fill="#040531" fill-opacity="0.1"/>
<rect width="154.202" height="154.202" rx="35" transform="matrix(0.866025 0.5 -0.866025 0.5 133.543 439)" fill="white"/>
<rect y="5" width="144.202" height="144.202" rx="10" transform="matrix(0.866025 0.5 -0.866025 0.5 137.873 441.5)" fill="white" stroke="#3A21ED" stroke-width="10"/>
<path d="M7.5625 516.102C7.5625 519.013 9.60629 521.648 12.9107 523.556V561.894C9.60629 559.986 7.5625 557.35 7.5625 554.439V516.102Z" fill="#3A21ED"/>
<path d="M254.175 561.888L146.456 624.08C139.325 628.197 127.764 628.197 120.633 624.08V585.742C127.763 589.859 139.324 589.859 146.455 585.742L254.175 523.551V561.888ZM120.632 585.742V624.08L12.9121 561.889V523.551L120.632 585.742Z" fill="#3A21ED"/>
<path d="M259.524 516.102C259.524 519.013 257.48 521.648 254.176 523.556V561.894C257.48 559.986 259.524 557.35 259.524 554.439V516.102Z" fill="#3A21ED"/>
<path d="M39.489 555.061C38.0833 554.252 36.9332 554.891 36.8906 556.509C36.8906 558.128 38.0408 560.13 39.4465 560.94L94.5672 592.76C95.9729 593.569 97.1231 592.93 97.1657 591.311C97.1657 589.693 96.0155 587.691 94.6098 586.881L39.4465 555.061H39.489Z" fill="white"/>
<path d="M94.652 581.69C98.571 583.948 101.723 589.443 101.723 593.916C101.723 598.388 98.4858 600.22 94.6095 597.962L39.4462 566.142C35.5272 563.885 32.375 558.39 32.375 553.917C32.375 549.444 35.5698 547.612 39.4887 549.87L94.6095 581.69H94.652ZM39.4887 564.055L94.6095 595.875C97.5061 597.579 99.8915 596.216 99.9341 592.851C99.9341 589.485 97.5912 585.396 94.652 583.735L39.4887 551.915C36.5921 550.211 34.2067 551.574 34.1641 554.897C34.1641 558.262 36.507 562.351 39.4462 564.012L39.4887 564.055Z" fill="white"/>
<path d="M228.79 555.061C230.196 554.252 231.346 554.891 231.389 556.509C231.389 558.128 230.238 560.13 228.833 560.94L173.712 592.76C172.306 593.569 171.156 592.93 171.114 591.311C171.114 589.693 172.264 587.691 173.669 586.881L228.833 555.061H228.79Z" fill="white"/>
<path d="M173.627 581.69C169.708 583.948 166.556 589.443 166.556 593.916C166.556 598.388 169.793 600.22 173.67 597.962L228.833 566.142C232.752 563.885 235.904 558.39 235.904 553.917C235.904 549.444 232.71 547.612 228.791 549.87L173.67 581.69H173.627ZM228.791 564.055L173.67 595.875C170.773 597.579 168.388 596.216 168.345 592.851C168.345 589.485 170.688 585.396 173.627 583.735L228.791 551.915C231.687 550.211 234.073 551.574 234.115 554.897C234.115 558.262 231.772 562.351 228.833 564.012L228.791 564.055Z" fill="white"/>
<path d="M100.751 503.692C100.008 503.687 99.2698 503.768 98.5813 503.929C97.8927 504.091 97.2672 504.331 96.7415 504.634C96.2158 504.938 95.8006 505.299 95.5203 505.697C95.2401 506.094 95.1004 506.52 95.1095 506.949L95.0902 506.96C95.1084 507.836 95.7232 508.672 96.8017 509.288C97.9316 509.941 99.3867 510.268 100.828 510.27H100.867C102.302 510.281 103.738 509.968 104.849 509.326C105.962 508.684 106.514 507.85 106.505 507.014L106.494 506.999C106.491 506.166 105.921 505.328 104.791 504.675C103.667 504.026 102.212 503.692 100.759 503.687L100.751 503.692ZM153.477 537.402C154.591 536.759 155.128 535.917 155.125 535.085L155.111 535.068C155.111 534.237 154.533 533.394 153.417 532.749C152.287 532.097 150.834 531.764 149.379 531.758L149.371 531.763C148.625 531.756 147.884 531.836 147.193 531.999C146.502 532.162 145.875 532.403 145.35 532.71C144.822 533.011 144.406 533.371 144.127 533.768C143.848 534.166 143.713 534.591 143.729 535.02L143.71 535.031C143.727 535.868 144.294 536.711 145.424 537.364C146.543 538.01 148.004 538.341 149.442 538.341L149.484 538.342C150.917 538.349 152.367 538.043 153.477 537.402ZM162.924 517.748C163.649 517.024 163.897 516.136 163.47 515.256L163.401 515.131C162.967 514.336 162.029 513.665 160.775 513.252C160.13 513.03 159.415 512.885 158.671 512.824C157.928 512.764 157.171 512.79 156.445 512.9L156.349 512.911C154.938 513.14 153.74 513.681 153.014 514.416C152.273 515.134 152.052 516.038 152.477 516.91C152.887 517.783 153.88 518.486 155.158 518.922C156.432 519.343 157.972 519.497 159.488 519.274L159.493 519.271C161.006 519.043 162.183 518.479 162.924 517.748ZM125.039 516.257C123.96 516.25 122.89 516.367 121.89 516.601C120.891 516.836 119.982 517.183 119.218 517.622C117.62 518.545 116.845 519.763 116.862 520.978C116.881 522.192 117.7 523.409 119.329 524.35C120.957 525.29 123.068 525.767 125.188 525.785C126.264 525.79 127.332 525.672 128.328 525.437C129.324 525.201 130.229 524.854 130.99 524.414C131.752 523.975 132.353 523.452 132.761 522.877C133.169 522.302 133.374 521.686 133.364 521.064C133.334 519.841 132.507 518.622 130.879 517.681C129.25 516.741 127.144 516.267 125.039 516.257ZM115.82 513.592C118.532 512.475 121.751 511.925 124.975 511.947L124.986 511.941C125.496 511.942 126.028 511.963 126.541 511.995L128.181 508.34C126.045 507.709 124.27 506.736 123.068 505.538C122.25 504.734 121.715 503.845 121.492 502.922C121.27 501.998 121.365 501.059 121.773 500.157L121.798 500.091C122.203 499.208 122.908 498.38 123.873 497.656C124.838 496.932 126.043 496.326 127.417 495.873C130.118 494.982 133.442 494.69 136.732 495.211L136.738 495.215C140.012 495.733 142.646 496.978 144.237 498.548C145.056 499.352 145.593 500.241 145.817 501.165C146.04 502.089 145.945 503.03 145.537 503.932L145.317 504.435L145.262 504.467C144.305 506.049 142.395 507.379 139.879 508.214C137.822 508.889 135.468 509.205 133.105 509.121L131.463 512.768C134.968 513.701 137.781 515.325 139.397 517.349L145.708 516.397C145.551 514.992 146.122 513.648 147.279 512.486C148.068 511.681 149.132 510.976 150.406 510.415C151.68 509.854 153.139 509.448 154.693 509.221L154.888 509.182L154.894 509.185C158.001 508.757 161.274 509.041 164.027 509.977C166.851 510.93 168.92 512.482 169.792 514.302L169.867 514.428L169.845 514.424C170.641 516.199 170.215 518.083 168.657 519.68C167.858 520.481 166.791 521.182 165.519 521.742C164.247 522.303 162.795 522.712 161.246 522.946L161.23 522.937C158.073 523.41 154.72 523.14 151.906 522.187C149.835 521.494 148.153 520.471 147.061 519.241L140.739 520.192C140.791 520.488 140.818 520.785 140.819 521.082L140.822 521.096C140.865 522.986 139.861 524.835 137.956 526.372L142.638 529.075C144.627 528.336 146.948 527.95 149.313 527.965L149.33 527.968C152.463 527.979 155.619 528.69 158.03 530.083C160.436 531.472 161.651 533.287 161.682 535.099L161.701 535.117C161.718 536.043 161.415 536.963 160.809 537.821C160.204 538.679 159.309 539.459 158.176 540.115C157.04 540.767 155.692 541.282 154.208 541.631C152.724 541.98 151.135 542.154 149.533 542.145L149.528 542.148L149.503 542.134C146.239 542.116 143.118 541.36 140.808 540.029C138.397 538.637 137.165 536.812 137.151 535.002L137.14 534.996L137.146 534.993C137.119 533.629 137.786 532.29 139.064 531.142L134.381 528.439C131.721 529.539 128.52 530.117 125.248 530.091L125.218 530.092C121.03 530.069 117.024 529.097 114.065 527.386C110.973 525.6 109.424 523.268 109.382 520.95L109.399 520.94C109.35 519.049 110.346 517.199 112.243 515.657L107.58 512.965C105.586 513.698 103.268 514.081 100.905 514.069L100.9 514.073L100.889 514.066C97.6195 514.048 94.4932 513.29 92.1827 511.955C89.7823 510.569 88.5477 508.742 88.5256 506.928L88.5256 506.922C88.503 505.997 88.8018 505.078 89.4044 504.22C90.007 503.362 90.901 502.583 92.0339 501.928C94.4068 500.558 97.5347 499.881 100.693 499.894L100.699 499.897L100.704 499.894C103.843 499.908 107.004 500.623 109.404 502.009C111.819 503.403 113.034 505.218 113.067 507.032L113.075 507.043C113.095 508.409 112.429 509.748 111.157 510.9L115.82 513.592ZM135.09 498.874L135.004 498.863C133.573 498.646 132.051 498.761 130.766 499.184C130.118 499.397 129.551 499.683 129.098 500.024C128.645 500.365 128.316 500.756 128.128 501.172L128.134 501.169C127.729 502.039 127.993 502.933 128.737 503.671C129.481 504.403 130.705 504.979 132.224 505.22L132.268 505.223C133.775 505.457 135.294 505.318 136.531 504.903C137.799 504.499 138.774 503.796 139.16 502.927L139.188 502.882C139.537 502.048 139.312 501.169 138.559 500.429C137.797 499.67 136.552 499.112 135.09 498.874Z" fill="#3A21ED"/>
<rect width="154.202" height="154.202" rx="15" transform="matrix(0.866025 0.5 -0.866025 0.5 745.723 523.766)" fill="#040531" fill-opacity="0.1"/>
<rect width="154.202" height="154.202" rx="35" transform="matrix(0.866025 0.5 -0.866025 0.5 745.721 439)" fill="white"/>
<rect y="5" width="144.202" height="144.202" rx="10" transform="matrix(0.866025 0.5 -0.866025 0.5 750.051 441.5)" fill="white" stroke="#3A21ED" stroke-width="10"/>
<path d="M619.74 516.098C619.74 519.009 621.784 521.644 625.088 523.552V561.89C621.784 559.982 619.74 557.346 619.74 554.435V516.098Z" fill="#3A21ED"/>
<path d="M866.353 561.888L758.634 624.08C751.503 628.197 739.941 628.196 732.811 624.079L625.092 561.889V523.551L732.812 585.742C739.942 589.859 751.502 589.859 758.633 585.742L866.353 523.551V561.888Z" fill="#3A21ED"/>
<path d="M871.702 516.098C871.702 519.009 869.658 521.644 866.354 523.552V561.89C869.658 559.982 871.702 557.346 871.702 554.435V516.098Z" fill="#3A21ED"/>
<path d="M651.667 555.061C650.261 554.252 649.111 554.891 649.068 556.509C649.068 558.128 650.219 560.13 651.624 560.94L706.745 592.76C708.151 593.569 709.301 592.93 709.343 591.311C709.343 589.693 708.193 587.691 706.788 586.881L651.624 555.061H651.667Z" fill="white"/>
<path d="M706.83 581.69C710.749 583.948 713.901 589.443 713.901 593.916C713.901 598.388 710.664 600.22 706.787 597.962L651.624 566.142C647.705 563.885 644.553 558.39 644.553 553.917C644.553 549.444 647.748 547.612 651.666 549.87L706.787 581.69H706.83ZM651.666 564.055L706.787 595.875C709.684 597.579 712.069 596.216 712.112 592.851C712.112 589.485 709.769 585.396 706.83 583.735L651.666 551.915C648.77 550.211 646.384 551.574 646.342 554.897C646.342 558.262 648.685 562.351 651.624 564.012L651.666 564.055Z" fill="white"/>
<path d="M840.968 555.061C842.374 554.252 843.524 554.891 843.566 556.509C843.566 558.128 842.416 560.13 841.011 560.94L785.89 592.76C784.484 593.569 783.334 592.93 783.291 591.311C783.291 589.693 784.441 587.691 785.847 586.881L841.011 555.061H840.968Z" fill="white"/>
<path d="M785.803 581.69C781.884 583.948 778.732 589.443 778.732 593.916C778.732 598.388 781.969 600.22 785.846 597.962L841.009 566.142C844.928 563.885 848.08 558.39 848.08 553.917C848.08 549.444 844.885 547.612 840.966 549.87L785.846 581.69H785.803ZM840.966 564.055L785.846 595.875C782.949 597.579 780.564 596.216 780.521 592.851C780.521 589.485 782.864 585.396 785.803 583.735L840.966 551.915C843.863 550.211 846.248 551.574 846.291 554.897C846.291 558.262 843.948 562.351 841.009 564.012L840.966 564.055Z" fill="white"/>
<path d="M725.248 544.479L700.085 529.951L704.476 527.416L726.7 529.366L724.606 530.575L721.026 517.861L725.417 515.326L750.579 529.854L745.952 532.525L726.025 521.02L728.254 520.24L731.429 533.11L730.888 533.422L708.833 531.453L709.914 530.322L729.841 541.827L725.248 544.479ZM764.784 522.121C763.185 523.044 761.407 523.733 759.448 524.188C757.511 524.63 755.53 524.838 753.503 524.812C751.477 524.76 749.54 524.461 747.694 523.915L749.855 520.756C751.904 521.237 753.92 521.386 755.901 521.204C757.86 521.009 759.56 520.496 761.001 519.664C761.812 519.196 762.386 518.721 762.724 518.24C763.061 517.733 763.163 517.259 763.028 516.817C762.915 516.362 762.544 515.952 761.913 515.588C761.17 515.159 760.337 514.938 759.414 514.925C758.491 514.886 757.455 515.042 756.306 515.393L749.923 517.285C747.356 518.065 744.969 518.39 742.763 518.26C740.556 518.13 738.631 517.59 736.987 516.641C735.546 515.809 734.623 514.873 734.218 513.833C733.835 512.78 733.97 511.714 734.623 510.635C735.276 509.53 736.424 508.503 738.068 507.554C739.577 506.683 741.232 506.04 743.033 505.624C744.812 505.195 746.624 504.993 748.471 505.019C750.317 505.019 752.096 505.253 753.807 505.721L751.713 508.88C749.957 508.438 748.246 508.308 746.579 508.49C744.891 508.659 743.393 509.121 742.087 509.875C741.322 510.317 740.781 510.785 740.466 511.279C740.128 511.76 740.027 512.234 740.162 512.702C740.297 513.144 740.68 513.547 741.31 513.911C742.008 514.314 742.853 514.542 743.844 514.594C744.812 514.633 745.904 514.47 747.12 514.106L753.199 512.273C755.856 511.493 758.254 511.149 760.393 511.24C762.555 511.318 764.48 511.844 766.169 512.819C767.61 513.651 768.511 514.6 768.871 515.666C769.231 516.732 769.073 517.824 768.398 518.942C767.722 520.06 766.518 521.12 764.784 522.121ZM777.263 514.448L752.1 499.921L756.694 497.269L769.798 504.835L768.11 505.303L766.151 491.809L771.926 488.474L773.784 501.13L770.812 499.102L797.392 502.826L791.988 505.946L774.155 503.45L774.797 507.721L781.856 511.796L777.263 514.448Z" fill="#3A21ED"/>
<defs>
<linearGradient id="paint0_linear_37_1023" x1="1044.57" y1="5.37535e-06" x2="1361.98" y2="551.659" gradientUnits="userSpaceOnUse">
<stop offset="0.131957" stop-color="#482FFF"/>
<stop offset="0.490385" stop-color="#341DDB"/>
<stop offset="0.530559" stop-color="#321BD7"/>
<stop offset="0.530659" stop-color="#321BD6"/>
<stop offset="0.83324" stop-color="#1A0E71"/>
<stop offset="0.995192" stop-color="#8270FF"/>
</linearGradient>
<linearGradient id="paint1_linear_37_1023" x1="1320.97" y1="275.514" x2="1382.44" y2="381.987" gradientUnits="userSpaceOnUse">
<stop stop-color="#F6F5FF"/>
<stop offset="1" stop-color="white"/>
</linearGradient>
<linearGradient id="paint2_linear_37_1023" x1="1160.35" y1="156.203" x2="1178.38" y2="201.877" gradientUnits="userSpaceOnUse">
<stop offset="0.4375" stop-color="white"/>
<stop offset="1" stop-color="#999999"/>
</linearGradient>
<linearGradient id="paint3_linear_37_1023" x1="1173.86" y1="124.274" x2="1212.68" y2="222.373" gradientUnits="userSpaceOnUse">
<stop offset="0.4375" stop-color="white"/>
<stop offset="1" stop-color="#999999"/>
</linearGradient>
<linearGradient id="paint4_linear_37_1023" x1="1175.63" y1="93.0749" x2="1248.29" y2="222.445" gradientUnits="userSpaceOnUse">
<stop offset="0.4375" stop-color="white"/>
<stop offset="1" stop-color="#999999"/>
</linearGradient>
<linearGradient id="paint5_linear_37_1023" x1="1176.2" y1="72.5164" x2="1248.82" y2="201.956" gradientUnits="userSpaceOnUse">
<stop offset="0.4375" stop-color="white"/>
<stop offset="1" stop-color="#999999"/>
</linearGradient>
<linearGradient id="paint6_linear_37_1023" x1="1193.94" y1="79.7606" x2="1226.79" y2="190.411" gradientUnits="userSpaceOnUse">
<stop offset="0.4375" stop-color="white"/>
<stop offset="1" stop-color="#999999"/>
</linearGradient>
<linearGradient id="paint7_linear_37_1023" x1="1229.42" y1="79.6477" x2="1262.13" y2="190.135" gradientUnits="userSpaceOnUse">
<stop offset="0.4375" stop-color="white"/>
<stop offset="1" stop-color="#999999"/>
</linearGradient>
<linearGradient id="paint8_linear_37_1023" x1="1252.69" y1="80.4293" x2="1294.34" y2="176.239" gradientUnits="userSpaceOnUse">
<stop offset="0.4375" stop-color="white"/>
<stop offset="1" stop-color="#999999"/>
</linearGradient>
<linearGradient id="paint9_linear_37_1023" x1="1271.4" y1="91.3737" x2="1289.71" y2="137.611" gradientUnits="userSpaceOnUse">
<stop offset="0.4375" stop-color="white"/>
<stop offset="1" stop-color="#999999"/>
</linearGradient>
<linearGradient id="paint10_linear_37_1023" x1="3.39555e-06" y1="292.003" x2="242.465" y2="99.6144" gradientUnits="userSpaceOnUse">
<stop offset="0.346154" stop-color="white"/>
<stop offset="1" stop-color="#DFDAFF"/>
</linearGradient>
<linearGradient id="paint11_linear_37_1023" x1="1144.94" y1="346.437" x2="991.906" y2="295.073" gradientUnits="userSpaceOnUse">
<stop offset="0.117152" stop-color="#3A21ED"/>
<stop offset="0.461538" stop-color="#3A21ED" stop-opacity="0.2"/>
</linearGradient>
</defs>
</svg>
