<svg width="1189" height="1196" viewBox="0 0 1189 1196" fill="none" xmlns="http://www.w3.org/2000/svg">
<g filter="url(#filter0_d_70_720)">
<path d="M552.149 50.6484C575.829 28.0917 613.061 28.0917 636.74 50.6484C659.678 72.4989 693.741 77.9042 722.313 64.2178C751.773 50.1067 787.187 61.6646 802.736 90.4209C817.799 118.277 848.539 134.007 879.949 129.838C912.319 125.542 942.433 147.511 948.354 179.664C954.089 210.809 978.465 235.308 1009.63 241.073C1041.76 247.017 1063.62 277.221 1059.33 309.65C1055.18 341.06 1070.8 371.893 1098.67 387.028C1127.41 402.646 1138.9 438.108 1124.81 467.658C1111.16 496.275 1116.52 530.398 1138.34 553.413C1160.89 577.189 1160.89 614.448 1138.34 638.224C1116.52 661.239 1111.16 695.362 1124.81 723.979C1138.9 753.529 1127.41 788.991 1098.67 804.608C1070.8 819.744 1055.18 850.577 1059.33 881.986C1063.62 914.416 1041.76 944.62 1009.63 950.563C978.465 956.329 954.089 980.827 948.354 1011.97C942.433 1044.13 912.32 1066.09 879.949 1061.8C848.539 1057.63 817.799 1073.36 802.736 1101.22C787.187 1129.97 751.773 1141.53 722.313 1127.42C693.741 1113.73 659.678 1119.14 636.74 1140.99C613.061 1163.55 575.829 1163.54 552.149 1140.99C529.212 1119.14 495.149 1113.73 466.576 1127.42C437.117 1141.53 401.702 1129.97 386.152 1101.22C371.09 1073.36 340.35 1057.63 308.94 1061.8C276.57 1066.1 246.457 1044.13 240.536 1011.97C234.801 980.827 210.425 956.329 179.259 950.563C147.13 944.62 125.271 914.416 129.556 881.986C133.705 850.577 118.085 819.744 90.2236 804.608C61.4751 788.991 49.9942 753.529 64.084 723.979C77.7283 695.362 72.3673 661.239 50.5439 638.224C27.9999 614.448 27.9999 577.189 50.5439 553.413C72.3673 530.398 77.7283 496.275 64.084 467.658C49.9942 438.108 61.4751 402.646 90.2236 387.028C118.085 371.893 133.705 341.06 129.556 309.65C125.271 277.221 147.13 247.017 179.259 241.073C210.425 235.308 234.801 210.81 240.536 179.664C246.457 147.511 276.57 125.541 308.94 129.838C340.35 134.007 371.09 118.277 386.152 90.4209C401.702 61.6645 437.117 50.1065 466.576 64.2178C495.149 77.9042 529.212 72.4989 552.149 50.6484Z" fill="#3A21ED" stroke="white" stroke-width="15"/>
<path d="M189.423 775.416L269.725 733.927L277.489 748.955L244.795 765.847L245.387 766.994L288.513 770.293L297.64 787.959L244.688 783.924L217.339 829.447L208.212 811.781L230.474 774.699L229.882 773.552L197.188 790.444L189.423 775.416Z" fill="white"/>
<path d="M228.347 846.673L251.108 829.036L313.635 809.174L323.204 821.524L288.358 877.111L265.597 894.747L255.236 881.376L268.607 871.016L252.078 849.683L238.707 860.044L228.347 846.673ZM280.159 858.308L296.821 832.167L267.268 841.671L280.159 858.308Z" fill="white"/>
<path d="M373.856 895.508L341.142 866.231L326.159 882.973L355.024 908.805L343.744 921.41L314.879 895.577L292.146 920.978L279.541 909.698L339.818 842.346L385.136 882.903L373.856 895.508Z" fill="white"/>
<path d="M341.276 962.441L388.379 885.298L402.815 894.113L383.638 925.521L384.74 926.194L423.313 906.629L440.285 916.991L392.929 941.028L393.182 994.134L376.211 983.771L375.992 940.52L374.89 939.847L355.713 971.256L341.276 962.441Z" fill="white"/>
<path d="M411.535 1003.14L421.815 976.239L464.91 926.773L479.504 932.35L478.624 997.95L468.345 1024.85L452.544 1018.81L458.583 1003.01L433.374 993.374L427.336 1009.17L411.535 1003.14ZM461.847 986.147L462.495 955.155L442.187 978.634L461.847 986.147Z" fill="white"/>
<path d="M612.11 977.959C612.11 975.635 611.292 973.698 609.656 972.148C608.107 970.513 606.127 969.695 603.717 969.695H593.387C591.063 969.695 589.083 970.513 587.447 972.148C585.898 973.784 585.123 975.721 585.123 977.959V1017.86C585.123 1020.1 585.941 1022.03 587.576 1023.67C589.212 1025.3 591.149 1026.12 593.387 1026.12H603.717C606.041 1026.12 608.021 1025.3 609.656 1023.67C611.292 1022.03 612.11 1020.1 612.11 1017.86V1010.76H629.025V1017.86C629.025 1022.42 627.863 1026.64 625.538 1030.51C623.3 1034.39 620.244 1037.48 616.371 1039.81C612.497 1042.05 608.279 1043.17 603.717 1043.17H593.387C588.825 1043.17 584.607 1042.05 580.733 1039.81C576.945 1037.48 573.889 1034.39 571.565 1030.51C569.327 1026.64 568.208 1022.42 568.208 1017.86V977.959C568.208 973.397 569.327 969.222 571.565 965.434C573.889 961.56 576.945 958.504 580.733 956.266C584.607 953.942 588.825 952.78 593.387 952.78H603.717C608.365 952.78 612.626 953.899 616.5 956.137C620.374 958.375 623.429 961.431 625.668 965.305C627.906 969.179 629.025 973.397 629.025 977.959V985.061H612.11V977.959Z" fill="white"/>
<path d="M662.972 1021.61L706.153 1013.69L709.205 1030.33L649.387 1041.3L633.077 952.4L649.714 949.347L662.972 1021.61Z" fill="white"/>
<path d="M776.659 979.448C778.288 983.71 778.708 988.065 777.92 992.513C777.212 996.93 775.464 1000.92 772.675 1004.47C769.856 1007.94 766.315 1010.49 762.054 1012.12L752.405 1015.81C748.143 1017.44 743.803 1017.9 739.386 1017.19C735.018 1016.37 731.057 1014.57 727.503 1011.78C724.03 1008.96 721.479 1005.42 719.85 1001.16L696.618 940.369L712.418 934.331L735.65 995.12C736.449 997.211 737.905 998.728 740.016 999.672C742.128 1000.62 744.229 1000.69 746.32 999.89L755.969 996.202C758.14 995.372 759.698 993.902 760.641 991.79C761.585 989.678 761.658 987.577 760.859 985.486L737.627 924.697L753.427 918.658L776.659 979.448Z" fill="white"/>
<path d="M802.726 959.463L804.947 963.099C806.248 965.23 808.104 966.618 810.515 967.264C812.955 967.791 815.241 967.404 817.371 966.103L824.755 961.595C827.106 960.16 828.635 958.369 829.342 956.223C830.048 954.076 829.819 952.048 828.652 950.138C827.082 947.567 824.524 946.103 820.978 945.746C817.506 945.345 812.554 945.494 806.122 946.194C800.221 946.771 795.241 947.038 791.181 946.996C787.149 946.835 783.252 945.987 779.491 944.451C775.684 942.842 772.592 940.09 770.214 936.196C767.882 932.376 766.751 928.377 766.822 924.198C766.848 919.946 767.998 915.966 770.272 912.257C772.62 908.504 775.925 905.326 780.186 902.725L785.366 899.562C789.406 897.095 793.722 895.821 798.313 895.741C802.977 895.617 807.333 896.638 811.38 898.807C815.501 900.93 818.795 904.013 821.262 908.053L822.81 910.588L808.373 919.403L806.825 916.868C805.524 914.738 803.654 913.409 801.214 912.881C798.729 912.28 796.384 912.653 794.18 913.999L789.001 917.161C786.503 918.687 784.884 920.33 784.145 922.093C783.406 923.856 783.574 925.618 784.651 927.382C785.548 928.851 787.319 929.686 789.963 929.887C792.562 930.015 796.488 929.837 801.74 929.353C808.379 928.829 813.966 928.646 818.5 928.802C823.107 928.914 827.654 929.92 832.142 931.819C836.704 933.674 840.352 936.842 843.089 941.323C845.466 945.217 846.65 949.386 846.64 953.83C846.704 958.229 845.57 962.401 843.238 966.346C840.98 970.246 837.757 973.475 833.57 976.032L826.186 980.54C822.145 983.007 817.829 984.281 813.239 984.361C808.648 984.441 804.329 983.396 800.282 981.228C796.234 979.06 792.977 975.955 790.51 971.914L788.289 968.277L802.726 959.463Z" fill="white"/>
<path d="M857.384 842.259L868.664 854.864L852.307 869.502L901.304 924.25L888.699 935.531L839.703 880.783L823.346 895.421L812.066 882.817L857.384 842.259Z" fill="white"/>
<path d="M910.761 801.57L883.871 836.273L897.855 847.108L921.581 816.487L934.85 826.769L911.124 857.389L928.577 870.913L955.467 836.21L968.838 846.57L931.588 894.644L860.14 839.284L897.39 791.209L910.761 801.57Z" fill="white"/>
<path d="M999.208 791.818L963.946 790.023L959.026 799.545L987.591 814.303L979.826 829.33L899.525 787.842L915.824 756.295C917.958 752.165 920.908 748.893 924.674 746.479C928.441 744.065 932.559 742.753 937.027 742.542C941.496 742.332 945.757 743.274 949.811 745.368L956.694 748.924C961.359 751.335 964.893 754.808 967.297 759.344C969.741 763.804 970.737 768.534 970.286 773.533L1007.74 775.299L999.208 791.818ZM952.533 775.261C953.64 773.12 953.86 771.005 953.195 768.917C952.493 766.714 951.071 765.058 948.929 763.952L942.046 760.396C939.981 759.329 937.885 759.167 935.758 759.908C933.594 760.534 931.958 761.918 930.852 764.059L922.317 780.578L943.999 791.78L952.533 775.261Z" fill="white"/>
<path d="M212.605 555.423L185.354 552.027L160.586 550.937L161.33 534.038L190.096 535.304L251.276 546.01L250.68 559.554L217.394 567.008L249.903 577.227L249.307 590.772L187.423 596.062L158.656 594.796L159.4 577.898L184.167 578.987L211.348 578.116L180.968 572.384L181.581 558.453L212.605 555.423Z" fill="white"/>
<path d="M248.302 479.135C248.941 476.9 248.7 474.772 247.578 472.749C246.455 470.727 244.818 469.408 242.667 468.792L204.308 457.812C202.074 457.172 199.987 457.425 198.047 458.571C196.048 459.611 194.717 461.289 194.054 463.607L191.211 473.537C190.572 475.772 190.813 477.9 191.935 479.923C193.081 481.863 194.73 483.14 196.882 483.756L235.24 494.736C237.392 495.352 239.479 495.099 241.501 493.977C243.524 492.854 244.843 491.217 245.459 489.066L248.302 479.135ZM192.227 500.018C187.841 498.763 184.135 496.538 181.11 493.344C178.025 490.044 175.928 486.265 174.819 482.007C173.65 477.644 173.694 473.269 174.949 468.883L177.792 458.952C179.071 454.483 181.32 450.694 184.537 447.586C187.755 444.478 191.534 442.381 195.874 441.295C200.214 440.209 204.577 440.294 208.963 441.55L247.322 452.53C251.708 453.785 255.443 456.063 258.528 459.364C261.636 462.581 263.774 466.372 264.943 470.736C266.028 475.076 265.943 479.439 264.688 483.825L261.845 493.756C260.59 498.142 258.353 501.889 255.135 504.998C251.859 507.999 248.038 510.084 243.675 511.253C239.335 512.339 234.971 512.254 230.585 510.998L192.227 500.018Z" fill="white"/>
<path d="M300.327 404.03L265.16 400.889L259.88 410.215L287.86 426.054L279.527 440.774L200.87 396.247L218.363 365.346C220.653 361.301 223.726 358.144 227.582 355.876C231.438 353.607 235.602 352.453 240.076 352.414C244.55 352.375 248.772 353.479 252.742 355.726L259.484 359.543C264.053 362.13 267.453 365.736 269.681 370.361C271.953 374.911 272.767 379.675 272.125 384.653L309.487 387.85L300.327 404.03ZM254.32 385.702C255.507 383.604 255.809 381.499 255.223 379.388C254.606 377.159 253.248 375.45 251.151 374.263L244.409 370.446C242.386 369.301 240.298 369.059 238.144 369.719C235.957 370.262 234.27 371.582 233.083 373.679L223.923 389.86L245.16 401.882L254.32 385.702Z" fill="white"/>
<path d="M321.508 371.476L255.318 309.926L266.837 297.539L293.786 322.599L294.665 321.653L283.192 279.951L296.733 265.389L310.835 316.589L362.923 326.94L349.382 341.502L306.957 333.084L306.078 334.029L333.027 359.089L321.508 371.476Z" fill="white"/>
<path d="M375.725 279.274L378.088 282.819C379.473 284.896 381.383 286.21 383.818 286.759C386.277 287.188 388.546 286.711 390.623 285.326L397.821 280.527C400.113 278.999 401.569 277.149 402.19 274.976C402.81 272.803 402.5 270.786 401.259 268.924C399.587 266.417 396.973 265.056 393.416 264.841C389.93 264.579 384.988 264.925 378.589 265.88C372.716 266.692 367.75 267.158 363.692 267.277C359.657 267.277 355.729 266.585 351.909 265.2C348.042 263.744 344.842 261.118 342.312 257.322C339.828 253.597 338.539 249.646 338.444 245.468C338.3 241.218 339.291 237.195 341.416 233.399C343.612 229.555 346.787 226.249 350.942 223.479L355.991 220.113C359.93 217.486 364.192 216.042 368.776 215.779C373.432 215.469 377.824 216.316 381.955 218.322C386.157 220.279 389.571 223.228 392.197 227.167L393.845 229.638L379.771 239.021L378.123 236.55C376.739 234.473 374.817 233.22 372.357 232.79C369.851 232.289 367.523 232.754 365.374 234.187L360.325 237.553C357.889 239.177 356.338 240.884 355.669 242.674C355.001 244.465 355.24 246.22 356.386 247.939C357.341 249.371 359.143 250.135 361.793 250.231C364.396 250.254 368.311 249.92 373.54 249.228C380.153 248.44 385.728 248.034 390.264 248.01C394.872 247.938 399.456 248.762 404.016 250.48C408.647 252.152 412.42 255.172 415.333 259.541C417.863 263.337 419.212 267.455 419.38 271.896C419.618 276.289 418.652 280.503 416.479 284.538C414.378 288.525 411.286 291.879 407.204 294.601L400.006 299.4C396.066 302.026 391.805 303.471 387.221 303.733C382.637 303.996 378.28 303.125 374.149 301.119C370.019 299.114 366.641 296.142 364.014 292.202L361.651 288.657L375.725 279.274Z" fill="white"/>
<path d="M560.951 202.389L559.948 174.946L557.066 150.322L573.866 148.355L577.214 176.955L576.424 239.059L562.958 240.635L550.281 208.968L545.388 242.692L531.922 244.268L516.81 184.025L513.462 155.426L530.262 153.46L533.145 178.083L538.349 204.775L539.152 173.87L553.002 172.248L560.951 202.389Z" fill="white"/>
<path d="M675.604 155.45L673.638 172.251L651.836 169.698L645.26 225.871L667.062 228.423L665.096 245.223L604.691 238.152L606.658 221.352L628.46 223.904L635.035 167.732L613.234 165.18L615.2 148.379L675.604 155.45Z" fill="white"/>
<path d="M773.12 186.12L767.283 201.995L746.68 194.42L721.326 263.378L705.45 257.54L730.804 188.583L710.202 181.008L716.039 165.132L773.12 186.12Z" fill="white"/>
<path d="M805.253 242.824L827.707 257.794L846.688 229.324L860.762 238.707L810.624 313.911L796.55 304.528L818.396 271.761L795.942 256.791L774.096 289.558L760.022 280.175L810.16 204.971L824.234 214.354L805.253 242.824Z" fill="white"/>
<path d="M879.479 388.031L904.536 373.845L969.267 363.167L976.964 376.764L934.497 426.77L909.439 440.955L901.106 426.235L915.826 417.902L902.532 394.418L887.811 402.751L879.479 388.031ZM929.083 406.985L949.326 383.507L918.715 388.669L929.083 406.985Z" fill="white"/>
<path d="M1020.9 493.291L934.005 518.164L927.928 496.937L976.668 460.287L921.923 475.958L917.268 459.696L1004.16 434.822L1010.24 456.05L961.501 492.699L1016.25 477.029L1020.9 493.291Z" fill="white"/>
<path d="M972.264 558.645L998.518 535.518L1027.54 534.241L1028.29 551.14L1005.2 552.156L989.01 566.18L1007.67 579.059L1029.47 578.1L1030.22 594.999L1002.74 596.208L973.008 575.544L938.952 577.043L938.209 560.144L972.264 558.645Z" fill="white"/>
<path opacity="0.2" d="M838.138 595.926C838.138 625.203 796.448 647.453 784.971 674.857C773.495 702.26 788.25 746.527 766.702 768.075C745.154 789.623 699.95 775.336 673.484 786.344C647.017 797.352 623.83 839.512 594.553 839.512C565.275 839.512 543.025 797.821 515.621 786.344C488.218 774.868 443.951 789.623 422.403 768.075C400.855 746.527 415.142 701.323 404.134 674.857C393.126 648.39 350.967 625.203 350.967 595.926C350.967 566.649 392.657 544.398 404.134 516.995C415.611 489.591 400.855 445.324 422.403 423.776C443.951 402.228 489.155 416.515 515.621 405.507C542.088 394.499 565.275 352.34 594.553 352.34C623.83 352.34 646.08 394.03 673.484 405.507C700.887 416.984 745.154 402.228 766.702 423.776C788.25 445.324 773.963 490.528 784.971 516.995C795.979 543.461 838.138 566.649 838.138 595.926Z" fill="white"/>
<path d="M735.915 560.889C730.192 554.872 724.322 548.709 721.973 542.985C719.625 537.262 719.625 529.777 719.479 521.412C719.332 507.764 719.038 492.061 708.619 481.642C698.199 471.222 682.497 470.929 668.848 470.782C660.483 470.635 652.559 470.488 647.275 468.287C641.992 466.086 635.388 460.069 629.371 454.345C619.686 444.953 608.532 434.387 594.444 434.387C580.355 434.387 569.202 444.953 559.516 454.345C553.499 460.069 547.336 465.939 541.612 468.287C535.889 470.635 528.404 470.635 520.039 470.782C506.391 470.929 490.688 471.222 480.269 481.642C469.849 492.061 469.556 507.764 469.409 521.412C469.262 529.777 469.115 537.702 466.914 542.985C464.713 548.268 458.696 554.872 452.972 560.889C443.58 570.575 433.014 581.728 433.014 595.817C433.014 609.905 443.58 621.059 452.972 630.744C458.696 636.761 464.566 642.925 466.914 648.648C469.262 654.372 469.262 661.856 469.409 670.221C469.556 683.87 469.849 699.572 480.269 709.992C490.688 720.411 506.391 720.705 520.039 720.852C528.404 720.998 536.329 721.145 541.612 723.347C546.895 725.548 553.499 731.565 559.516 737.288C569.202 746.681 580.355 757.247 594.444 757.247C608.532 757.247 619.686 746.681 629.371 737.288C635.388 731.565 641.552 725.695 647.275 723.347C652.999 720.998 660.483 720.998 668.848 720.852C682.497 720.705 698.199 720.411 708.619 709.992C719.038 699.572 719.332 683.87 719.479 670.221C719.625 661.856 719.772 653.932 721.973 648.648C724.175 643.365 730.192 636.761 735.915 630.744C745.307 621.059 755.874 609.905 755.874 595.817C755.874 581.728 745.307 570.575 735.915 560.889ZM723.294 618.564C716.397 625.755 709.353 633.092 705.684 641.898C702.015 650.703 702.015 660.242 701.868 669.928C701.721 679.614 701.575 692.088 696.145 697.518C690.715 702.948 679.415 703.094 668.555 703.241C657.695 703.388 648.89 703.535 640.525 707.057C632.16 710.579 624.382 717.77 617.191 724.667C610 731.565 601.488 739.636 594.444 739.636C587.4 739.636 579.475 732.005 571.697 724.667C563.919 717.33 557.168 710.726 548.363 707.057C539.558 703.388 530.018 703.388 520.333 703.241C510.647 703.094 498.173 702.948 492.743 697.518C487.313 692.088 487.166 680.788 487.019 669.928C486.873 659.068 486.726 650.263 483.204 641.898C479.682 633.533 472.491 625.755 465.593 618.564C458.696 611.373 450.624 602.861 450.624 595.817C450.624 588.773 458.255 580.848 465.593 573.07C472.931 565.292 479.535 558.541 483.204 549.736C486.873 540.931 486.873 531.392 487.019 521.706C487.166 512.02 487.313 499.546 492.743 494.116C498.173 488.686 509.473 488.539 520.333 488.392C531.193 488.246 539.998 488.099 548.363 484.577C556.728 481.055 564.506 473.864 571.697 466.966C578.888 460.069 587.4 451.997 594.444 451.997C601.488 451.997 609.413 459.629 617.191 466.966C624.969 474.304 631.719 480.908 640.525 484.577C649.33 488.246 658.869 488.246 668.555 488.392C678.241 488.539 690.715 488.686 696.145 494.116C701.575 499.546 701.721 510.846 701.868 521.706C702.015 532.566 702.162 541.371 705.684 549.736C709.206 558.101 716.397 565.879 723.294 573.07C730.192 580.261 738.263 588.773 738.263 595.817C738.263 602.861 730.632 610.786 723.294 618.564ZM665.326 554.579C666.124 555.404 666.749 556.379 667.167 557.447C667.584 558.516 667.785 559.657 667.758 560.804C667.731 561.951 667.476 563.081 667.008 564.129C666.54 565.176 665.869 566.12 665.033 566.906L579.035 649.089C577.36 650.656 575.164 651.545 572.871 651.584C570.614 651.583 568.449 650.685 566.854 649.089L523.855 607.997C522.181 606.402 521.21 604.206 521.155 601.895C521.1 599.583 521.965 597.344 523.561 595.67C525.157 593.996 527.352 593.025 529.664 592.97C531.976 592.915 534.215 593.781 535.889 595.377L572.871 630.598L652.999 554.285C653.824 553.488 654.799 552.862 655.867 552.445C656.936 552.027 658.077 551.826 659.224 551.853C660.371 551.881 661.501 552.136 662.549 552.604C663.596 553.071 664.54 553.743 665.326 554.579Z" fill="white"/>
</g>
<defs>
<filter id="filter0_d_70_720" x="26.1367" y="26.2305" width="1136.62" height="1169.18" filterUnits="userSpaceOnUse" color-interpolation-filters="sRGB">
<feFlood flood-opacity="0" result="BackgroundImageFix"/>
<feColorMatrix in="SourceAlpha" type="matrix" values="0 0 0 0 0 0 0 0 0 0 0 0 0 0 0 0 0 0 127 0" result="hardAlpha"/>
<feOffset dy="30"/>
<feComposite in2="hardAlpha" operator="out"/>
<feColorMatrix type="matrix" values="0 0 0 0 0.227451 0 0 0 0 0.129412 0 0 0 0 0.929412 0 0 0 0.25 0"/>
<feBlend mode="normal" in2="BackgroundImageFix" result="effect1_dropShadow_70_720"/>
<feBlend mode="normal" in="SourceGraphic" in2="effect1_dropShadow_70_720" result="shape"/>
</filter>
</defs>
</svg>
